<mxfile host="app.diagrams.net" modified="2024-04-10T09:58:43.414Z" agent="Mozilla/5.0 (Windows NT 10.0; Win64; x64) AppleWebKit/537.36 (KHTML, like Gecko) Chrome/122.0.0.0 Safari/537.36" etag="pcdUnP-EDd6nmka0A19h" version="24.2.3" type="github">
  <diagram name="ページ1" id="LWTCH330cGk1dUdq2kf2">
    <mxGraphModel dx="3145" dy="1218" grid="1" gridSize="10" guides="1" tooltips="1" connect="1" arrows="1" fold="1" page="1" pageScale="1" pageWidth="827" pageHeight="1169" math="0" shadow="0">
      <root>
        <mxCell id="0" />
        <mxCell id="1" parent="0" />
        <mxCell id="3UVfZ1H2c97ZhmjEvloD-1" value="BC20000" style="text;html=1;strokeColor=none;fillColor=none;align=center;verticalAlign=middle;whiteSpace=wrap;rounded=0;" vertex="1" parent="1">
          <mxGeometry x="-110" y="85" width="60" height="30" as="geometry" />
        </mxCell>
        <mxCell id="3UVfZ1H2c97ZhmjEvloD-2" value="BC10000" style="text;html=1;strokeColor=none;fillColor=none;align=center;verticalAlign=middle;whiteSpace=wrap;rounded=0;" vertex="1" parent="1">
          <mxGeometry x="-110" y="325" width="60" height="30" as="geometry" />
        </mxCell>
        <mxCell id="3UVfZ1H2c97ZhmjEvloD-3" value="BC3000" style="text;html=1;strokeColor=none;fillColor=none;align=center;verticalAlign=middle;whiteSpace=wrap;rounded=0;" vertex="1" parent="1">
          <mxGeometry x="-110" y="445" width="60" height="30" as="geometry" />
        </mxCell>
        <mxCell id="3UVfZ1H2c97ZhmjEvloD-4" value="BC1700" style="text;html=1;strokeColor=none;fillColor=none;align=center;verticalAlign=middle;whiteSpace=wrap;rounded=0;" vertex="1" parent="1">
          <mxGeometry x="-110" y="565" width="60" height="30" as="geometry" />
        </mxCell>
        <mxCell id="3UVfZ1H2c97ZhmjEvloD-5" value="BC200" style="text;html=1;strokeColor=none;fillColor=none;align=center;verticalAlign=middle;whiteSpace=wrap;rounded=0;" vertex="1" parent="1">
          <mxGeometry x="-110" y="685" width="60" height="30" as="geometry" />
        </mxCell>
        <mxCell id="3UVfZ1H2c97ZhmjEvloD-6" value="AC500" style="text;html=1;strokeColor=none;fillColor=none;align=center;verticalAlign=middle;whiteSpace=wrap;rounded=0;" vertex="1" parent="1">
          <mxGeometry x="-110" y="805" width="60" height="30" as="geometry" />
        </mxCell>
        <mxCell id="3UVfZ1H2c97ZhmjEvloD-7" value="AC800" style="text;html=1;strokeColor=none;fillColor=none;align=center;verticalAlign=middle;whiteSpace=wrap;rounded=0;" vertex="1" parent="1">
          <mxGeometry x="-110" y="925" width="60" height="25" as="geometry" />
        </mxCell>
        <mxCell id="3UVfZ1H2c97ZhmjEvloD-8" value="AC1300" style="text;html=1;strokeColor=none;fillColor=none;align=center;verticalAlign=middle;whiteSpace=wrap;rounded=0;" vertex="1" parent="1">
          <mxGeometry x="-110" y="1047.5" width="60" height="25" as="geometry" />
        </mxCell>
        <mxCell id="3UVfZ1H2c97ZhmjEvloD-9" value="AC1700" style="text;html=1;strokeColor=none;fillColor=none;align=center;verticalAlign=middle;whiteSpace=wrap;rounded=0;" vertex="1" parent="1">
          <mxGeometry x="-110" y="1295" width="60" height="25" as="geometry" />
        </mxCell>
        <mxCell id="3UVfZ1H2c97ZhmjEvloD-10" value="AC1800" style="text;html=1;strokeColor=none;fillColor=none;align=center;verticalAlign=middle;whiteSpace=wrap;rounded=0;" vertex="1" parent="1">
          <mxGeometry x="-110" y="1410" width="60" height="20" as="geometry" />
        </mxCell>
        <mxCell id="3UVfZ1H2c97ZhmjEvloD-11" value="AC1850" style="text;html=1;strokeColor=none;fillColor=none;align=center;verticalAlign=middle;whiteSpace=wrap;rounded=0;" vertex="1" parent="1">
          <mxGeometry x="-110" y="1530" width="60" height="20" as="geometry" />
        </mxCell>
        <mxCell id="3UVfZ1H2c97ZhmjEvloD-12" value="AC1870" style="text;html=1;strokeColor=none;fillColor=none;align=center;verticalAlign=middle;whiteSpace=wrap;rounded=0;" vertex="1" parent="1">
          <mxGeometry x="-110" y="1650" width="60" height="20" as="geometry" />
        </mxCell>
        <mxCell id="3UVfZ1H2c97ZhmjEvloD-13" value="AC1890" style="text;html=1;strokeColor=none;fillColor=none;align=center;verticalAlign=middle;whiteSpace=wrap;rounded=0;" vertex="1" parent="1">
          <mxGeometry x="-110" y="1770" width="60" height="20" as="geometry" />
        </mxCell>
        <mxCell id="3UVfZ1H2c97ZhmjEvloD-14" value="AC1910" style="text;html=1;strokeColor=none;fillColor=none;align=center;verticalAlign=middle;whiteSpace=wrap;rounded=0;" vertex="1" parent="1">
          <mxGeometry x="-110" y="1893.5" width="60" height="20" as="geometry" />
        </mxCell>
        <mxCell id="3UVfZ1H2c97ZhmjEvloD-15" value="AC1930" style="text;html=1;strokeColor=none;fillColor=none;align=center;verticalAlign=middle;whiteSpace=wrap;rounded=0;" vertex="1" parent="1">
          <mxGeometry x="-110" y="2010" width="60" height="20" as="geometry" />
        </mxCell>
        <mxCell id="3UVfZ1H2c97ZhmjEvloD-16" value="AC1940" style="text;html=1;strokeColor=none;fillColor=none;align=center;verticalAlign=middle;whiteSpace=wrap;rounded=0;" vertex="1" parent="1">
          <mxGeometry x="-110" y="2130" width="60" height="20" as="geometry" />
        </mxCell>
        <mxCell id="3UVfZ1H2c97ZhmjEvloD-17" value="AC1950" style="text;html=1;strokeColor=none;fillColor=none;align=center;verticalAlign=middle;whiteSpace=wrap;rounded=0;" vertex="1" parent="1">
          <mxGeometry x="-110" y="2250" width="60" height="20" as="geometry" />
        </mxCell>
        <mxCell id="3UVfZ1H2c97ZhmjEvloD-18" value="AC1980" style="text;html=1;strokeColor=none;fillColor=none;align=center;verticalAlign=middle;whiteSpace=wrap;rounded=0;" vertex="1" parent="1">
          <mxGeometry x="-110" y="2370" width="60" height="20" as="geometry" />
        </mxCell>
        <mxCell id="3UVfZ1H2c97ZhmjEvloD-19" value="AC2000" style="text;html=1;strokeColor=none;fillColor=none;align=center;verticalAlign=middle;whiteSpace=wrap;rounded=0;" vertex="1" parent="1">
          <mxGeometry x="-110" y="2490" width="60" height="20" as="geometry" />
        </mxCell>
        <mxCell id="3UVfZ1H2c97ZhmjEvloD-20" value="AC2050" style="text;html=1;strokeColor=none;fillColor=none;align=center;verticalAlign=middle;whiteSpace=wrap;rounded=0;" vertex="1" parent="1">
          <mxGeometry x="-110" y="2610" width="60" height="20" as="geometry" />
        </mxCell>
        <mxCell id="3UVfZ1H2c97ZhmjEvloD-21" value="AC1500" style="text;html=1;strokeColor=none;fillColor=none;align=center;verticalAlign=middle;whiteSpace=wrap;rounded=0;" vertex="1" parent="1">
          <mxGeometry x="-110" y="1180" width="60" height="25" as="geometry" />
        </mxCell>
      </root>
    </mxGraphModel>
  </diagram>
</mxfile>
